<mxfile host="app.diagrams.net" agent="Mozilla/5.0 (Macintosh; Intel Mac OS X 10_15_7) AppleWebKit/537.36 (KHTML, like Gecko) Chrome/131.0.0.0 Safari/537.36" version="26.0.5">
  <diagram name="第 1 页" id="PhDVCypKl1Op7rpu3dQe">
    <mxGraphModel dx="1434" dy="761" grid="1" gridSize="10" guides="1" tooltips="1" connect="1" arrows="1" fold="1" page="1" pageScale="1" pageWidth="827" pageHeight="1169" math="0" shadow="0">
      <root>
        <mxCell id="0" />
        <mxCell id="1" parent="0" />
        <mxCell id="F_5rz7j5BVUicNUhTL0_-1" style="edgeStyle=orthogonalEdgeStyle;rounded=0;orthogonalLoop=1;jettySize=auto;html=1;exitX=1;exitY=0.5;exitDx=0;exitDy=0;entryX=0;entryY=0.5;entryDx=0;entryDy=0;" edge="1" parent="1" source="PkWPZcsCAGIREC3plowT-1" target="PkWPZcsCAGIREC3plowT-3">
          <mxGeometry relative="1" as="geometry">
            <Array as="points">
              <mxPoint x="160" y="130" />
              <mxPoint x="160" y="80" />
            </Array>
          </mxGeometry>
        </mxCell>
        <mxCell id="F_5rz7j5BVUicNUhTL0_-2" style="edgeStyle=orthogonalEdgeStyle;rounded=0;orthogonalLoop=1;jettySize=auto;html=1;exitX=1;exitY=0.5;exitDx=0;exitDy=0;entryX=0;entryY=0.5;entryDx=0;entryDy=0;" edge="1" parent="1" source="PkWPZcsCAGIREC3plowT-1" target="PkWPZcsCAGIREC3plowT-4">
          <mxGeometry relative="1" as="geometry">
            <Array as="points">
              <mxPoint x="160" y="130" />
              <mxPoint x="160" y="180" />
            </Array>
          </mxGeometry>
        </mxCell>
        <mxCell id="PkWPZcsCAGIREC3plowT-1" value="文件下载" style="rounded=0;whiteSpace=wrap;html=1;" parent="1" vertex="1">
          <mxGeometry x="50" y="110" width="100" height="40" as="geometry" />
        </mxCell>
        <mxCell id="F_5rz7j5BVUicNUhTL0_-3" style="edgeStyle=orthogonalEdgeStyle;rounded=0;orthogonalLoop=1;jettySize=auto;html=1;exitX=1;exitY=0.5;exitDx=0;exitDy=0;entryX=0;entryY=0.5;entryDx=0;entryDy=0;" edge="1" parent="1" source="PkWPZcsCAGIREC3plowT-3" target="PkWPZcsCAGIREC3plowT-6">
          <mxGeometry relative="1" as="geometry" />
        </mxCell>
        <mxCell id="PkWPZcsCAGIREC3plowT-3" value="首页译文回填" style="rounded=0;whiteSpace=wrap;html=1;" parent="1" vertex="1">
          <mxGeometry x="177" y="60" width="100" height="40" as="geometry" />
        </mxCell>
        <mxCell id="F_5rz7j5BVUicNUhTL0_-4" style="edgeStyle=orthogonalEdgeStyle;rounded=0;orthogonalLoop=1;jettySize=auto;html=1;exitX=1;exitY=0.5;exitDx=0;exitDy=0;entryX=0;entryY=0.5;entryDx=0;entryDy=0;" edge="1" parent="1" source="PkWPZcsCAGIREC3plowT-4" target="PkWPZcsCAGIREC3plowT-7">
          <mxGeometry relative="1" as="geometry" />
        </mxCell>
        <mxCell id="PkWPZcsCAGIREC3plowT-4" value="latex译文回填" style="rounded=0;whiteSpace=wrap;html=1;" parent="1" vertex="1">
          <mxGeometry x="177" y="160" width="100" height="40" as="geometry" />
        </mxCell>
        <mxCell id="F_5rz7j5BVUicNUhTL0_-6" style="edgeStyle=orthogonalEdgeStyle;rounded=0;orthogonalLoop=1;jettySize=auto;html=1;exitX=1;exitY=0.5;exitDx=0;exitDy=0;entryX=0;entryY=0.5;entryDx=0;entryDy=0;" edge="1" parent="1" source="PkWPZcsCAGIREC3plowT-6" target="PkWPZcsCAGIREC3plowT-8">
          <mxGeometry relative="1" as="geometry">
            <Array as="points">
              <mxPoint x="420" y="80" />
              <mxPoint x="420" y="130" />
            </Array>
          </mxGeometry>
        </mxCell>
        <mxCell id="PkWPZcsCAGIREC3plowT-6" value="首页word译文转pdf" style="rounded=0;whiteSpace=wrap;html=1;" parent="1" vertex="1">
          <mxGeometry x="310" y="60" width="100" height="40" as="geometry" />
        </mxCell>
        <mxCell id="F_5rz7j5BVUicNUhTL0_-5" style="edgeStyle=orthogonalEdgeStyle;rounded=0;orthogonalLoop=1;jettySize=auto;html=1;exitX=1;exitY=0.5;exitDx=0;exitDy=0;entryX=0;entryY=0.5;entryDx=0;entryDy=0;" edge="1" parent="1" source="PkWPZcsCAGIREC3plowT-7" target="PkWPZcsCAGIREC3plowT-8">
          <mxGeometry relative="1" as="geometry">
            <Array as="points">
              <mxPoint x="420" y="180" />
              <mxPoint x="420" y="130" />
            </Array>
          </mxGeometry>
        </mxCell>
        <mxCell id="PkWPZcsCAGIREC3plowT-7" value="latex译文编译" style="rounded=0;whiteSpace=wrap;html=1;" parent="1" vertex="1">
          <mxGeometry x="310" y="160" width="100" height="40" as="geometry" />
        </mxCell>
        <mxCell id="F_5rz7j5BVUicNUhTL0_-7" style="edgeStyle=orthogonalEdgeStyle;rounded=0;orthogonalLoop=1;jettySize=auto;html=1;exitX=1;exitY=0.5;exitDx=0;exitDy=0;entryX=0;entryY=0.5;entryDx=0;entryDy=0;" edge="1" parent="1" source="PkWPZcsCAGIREC3plowT-8" target="PkWPZcsCAGIREC3plowT-9">
          <mxGeometry relative="1" as="geometry" />
        </mxCell>
        <mxCell id="PkWPZcsCAGIREC3plowT-8" value="合并生成PDF译文" style="rounded=0;whiteSpace=wrap;html=1;" parent="1" vertex="1">
          <mxGeometry x="440" y="110" width="100" height="40" as="geometry" />
        </mxCell>
        <mxCell id="F_5rz7j5BVUicNUhTL0_-8" style="edgeStyle=orthogonalEdgeStyle;rounded=0;orthogonalLoop=1;jettySize=auto;html=1;exitX=1;exitY=0.5;exitDx=0;exitDy=0;entryX=0;entryY=0.5;entryDx=0;entryDy=0;" edge="1" parent="1" source="PkWPZcsCAGIREC3plowT-9" target="PkWPZcsCAGIREC3plowT-10">
          <mxGeometry relative="1" as="geometry" />
        </mxCell>
        <mxCell id="PkWPZcsCAGIREC3plowT-9" value="切分生成预览文件" style="rounded=0;whiteSpace=wrap;html=1;" parent="1" vertex="1">
          <mxGeometry x="570" y="110" width="100" height="40" as="geometry" />
        </mxCell>
        <mxCell id="F_5rz7j5BVUicNUhTL0_-9" style="edgeStyle=orthogonalEdgeStyle;rounded=0;orthogonalLoop=1;jettySize=auto;html=1;exitX=1;exitY=0.5;exitDx=0;exitDy=0;entryX=0;entryY=0.5;entryDx=0;entryDy=0;" edge="1" parent="1" source="PkWPZcsCAGIREC3plowT-10" target="PkWPZcsCAGIREC3plowT-11">
          <mxGeometry relative="1" as="geometry" />
        </mxCell>
        <mxCell id="PkWPZcsCAGIREC3plowT-10" value="生成docx译文" style="rounded=0;whiteSpace=wrap;html=1;" parent="1" vertex="1">
          <mxGeometry x="700" y="110" width="100" height="40" as="geometry" />
        </mxCell>
        <mxCell id="PkWPZcsCAGIREC3plowT-11" value="返回" style="rounded=0;whiteSpace=wrap;html=1;" parent="1" vertex="1">
          <mxGeometry x="827" y="110" width="100" height="40" as="geometry" />
        </mxCell>
      </root>
    </mxGraphModel>
  </diagram>
</mxfile>
